<svg width="32" height="22" fill="none" xmlns="http://www.w3.org/2000/svg"><path d="M10.55.94C4.908.94.32 5.528.32 11.17S4.908 21.4 10.55 21.4s10.23-4.588 10.23-10.23S16.192.94 10.55.94Zm5.61 5.94a.66.66 0 0 1 .467 1.127l-7.92 7.92a.658.658 0 0 1-.933 0l-3.3-3.3a.66.66 0 1 1 .933-.934l2.833 2.834 7.454-7.454a.658.658 0 0 1 .466-.193Zm7.92 3.96a.66.66 0 1 0 0 1.32H32v-1.32h-7.92Z" fill="url(#a)"/><defs><linearGradient id="a" x1="36.062" y1=".94" x2="13.916" y2="31.32" gradientUnits="userSpaceOnUse"><stop offset=".25" stop-color="#3B768F"/><stop offset=".536" stop-color="#3EC6FF"/><stop offset=".818" stop-color="#3B768F"/></linearGradient></defs></svg>