<svg width="23" height="23" fill="none" xmlns="http://www.w3.org/2000/svg"><path d="M4.92.494c-.385-.03-.813.08-1.208.358a17.34 17.34 0 0 0-1.798 1.512 8.78 8.78 0 0 0-.942 1.029c-.26.344-.486.658-.472 1.115.013.41.054 1.623.927 3.482.873 1.858 2.567 4.407 5.87 7.711 3.304 3.305 5.853 4.998 7.71 5.872 1.858.872 3.073.914 3.483.927.455.014.77-.213 1.113-.472.344-.26.694-.592 1.03-.942a17.515 17.515 0 0 0 1.51-1.799c.552-.787.46-1.716-.155-2.148-.387-.272-3.944-2.639-4.479-2.967-.543-.332-1.168-.181-1.726.113-.44.233-1.63.914-1.969 1.11-.256-.162-1.226-.809-3.314-2.897C8.41 10.41 7.765 9.44 7.603 9.184c.195-.34.875-1.524 1.11-1.97.292-.558.457-1.188.107-1.735-.147-.233-.813-1.246-1.484-2.264a147.056 147.056 0 0 0-1.479-2.213V1A1.262 1.262 0 0 0 4.92.494Zm-.092 1.022a.552.552 0 0 1 .218.072c.08.111.782 1.162 1.454 2.178a287.2 287.2 0 0 1 1.476 2.25c.02.03.047.361-.148.73v.002c-.221.42-1.25 2.219-1.25 2.219l-.143.252.147.25s.767 1.295 3.209 3.736c2.443 2.442 3.738 3.211 3.738 3.211l.25.147.252-.143s1.795-1.027 2.219-1.25c.369-.193.7-.168.74-.144.346.213 4.187 2.765 4.424 2.931.008.006.216.322-.088.756h-.002a17.273 17.273 0 0 1-1.412 1.68c-.315.326-.637.63-.91.836-.274.205-.518.27-.479.271-.426-.013-1.365-.023-3.09-.834-1.724-.808-4.185-2.428-7.43-5.674-3.242-3.242-4.86-5.703-5.671-7.43C1.523 5.839 1.513 4.9 1.5 4.476c.002.039.066-.207.271-.48.205-.274.508-.598.834-.913a17.53 17.53 0 0 1 1.68-1.412v.002a.771.771 0 0 1 .543-.156Z" fill="url(#a)"/><defs><linearGradient id="a" x1="11.503" y1=".489" x2="11.503" y2="22.501" gradientUnits="userSpaceOnUse"><stop stop-color="#4ABCEC"/><stop offset="1" stop-color="#4A8BEC"/></linearGradient></defs></svg>