<svg width="50" height="38" fill="none" xmlns="http://www.w3.org/2000/svg"><path d="M26.906 0c-8.867 0-12.16 6.852-9.625 12.656-.316.211-.824.871-.718 2.031.21 2.11 1.16 2.614 1.687 2.72.21 2.003 1.48 4.34 2.219 4.655 0 1.372-.02 2.52-.125 4C18.727 30.31 8.39 29.325 7.062 36.938c-.058.333.286 1.063.97 1.063H42c1.016 0 .996-.75.938-1.094-1.352-7.582-11.665-6.601-13.282-10.843a54.05 54.05 0 0 1-.125-4c.739-.317 1.914-2.758 2.125-4.657.528 0 1.371-.636 1.688-2.75.105-1.16-.328-1.894-.75-2 1.687-2.11 1.383-10.75-4.844-10.75L26.906 0Zm-11.75 5c-6.676.113-9.601 5.426-7.594 9.969-.214.105-.636.664-.53 1.625.214 1.71.85 2.125 1.28 2.125.211 1.601 1.157 3.398 1.688 3.718 0 1.067.012 1.036-.094 2.313C9.04 27.484 0 27.281 0 34c0 0 0 1 1 1h4.531c1.528-4.32 5.68-5.984 8.813-7.219 1.726-.68 3.496-1.367 4.031-2.218.059-.93.09-1.72.094-2.594-.95-1.086-1.657-2.778-2-4.219-.813-.602-1.692-1.758-1.907-3.906-.093-1.02.122-1.867.47-2.531-.794-2.465-.743-5.04.124-7.313ZM38 5c-.957 0-2.086.078-3.156.25.8 2.348.832 5.152.125 7.156.312.688.457 1.524.375 2.438l-.032.062v.063c-.296 1.965-1.019 3.16-1.874 3.812-.325 1.352-.985 3.059-1.907 4.157a46.1 46.1 0 0 0 .094 2.625c.535.851 2.309 1.539 4.031 2.218 3.13 1.23 7.282 2.899 8.813 7.219H49c1 0 1-.969 1-.969.004-7.734-8.559-5.902-9.844-9.437-.11-1.18-.125-1.07-.125-2.25.535-.32 1.52-2.121 1.625-3.625.43 0 1.067-.442 1.282-2.157.105-.855-.211-1.488-.532-1.593 1.29-1.715 1.078-8.469-3.75-8.469L38 5Z" fill="url(#a)"/><defs><linearGradient id="a" x1="56.41" y1="0" x2="13.71" y2="49.778" gradientUnits="userSpaceOnUse"><stop offset=".25" stop-color="#3B768F"/><stop offset=".536" stop-color="#3EC6FF"/><stop offset=".818" stop-color="#3B768F"/></linearGradient></defs></svg>