<svg width="44" height="44" fill="none" xmlns="http://www.w3.org/2000/svg"><path d="M16 0v1h-4v43h4v-1h1v1h1v-1h1v1h1v-1h1v1h1v-1h1v1h1v-1h1v1h1v-1h1v1h4V1h-4V0H16Zm-6 4.168L0 8.332V44h4v-2h1v2h1v-2h1v2h1v-2h1v2h1V4.168ZM16 5h1v1h-1V5Zm2 0h1v1h-1V5Zm2 0h1v1h-1V5Zm2 0h1v1h-1V5Zm2 0h1v1h-1V5Zm2 0h1v1h-1V5ZM16 7h1v1h-1V7Zm2 0h1v1h-1V7Zm2 0h1v1h-1V7Zm2 0h1v1h-1V7Zm2 0h1v1h-1V7Zm2 0h1v1h-1V7ZM9 8.734V11H8V9.121l1-.387ZM16 9h1v1h-1V9Zm2 0h1v1h-1V9Zm2 0h1v1h-1V9Zm2 0h1v1h-1V9Zm2 0h1v1h-1V9Zm2 0h1v1h-1V9Zm7 0v4h1v1h-1v1h1v1h-1v1h1v1h-1v1h1v1h-1v1h1v1h-1v1h1v1h-1v1h1v1h-1v1h1v1h-1v1h1v1h-1v1h1v1h-1v1h1v1h-1v1h1v1h-1v1h1v1h-1v1h1v1h-1v1h1v1h-1v1h1v1h1v-1h2v1h1v-1h2v1h4V9H33ZM7 9.5V11H6V9.887L7 9.5Zm-2 .766V11H4v-.348l1-.386ZM16 11h1v1h-1v-1Zm2 0h1v1h-1v-1Zm2 0h1v1h-1v-1Zm2 0h1v1h-1v-1Zm2 0h1v1h-1v-1Zm2 0h1v1h-1v-1ZM4 12h1v2H4v-2Zm2 0h1v2H6v-2Zm2 0h1v2H8v-2Zm8 1h1v1h-1v-1Zm2 0h1v1h-1v-1Zm2 0h1v1h-1v-1Zm2 0h1v1h-1v-1Zm2 0h1v1h-1v-1Zm2 0h1v1h-1v-1Zm9 0h2v1h-2v-1Zm3 0h2v1h-2v-1ZM4 15h1v2H4v-2Zm2 0h1v2H6v-2Zm2 0h1v2H8v-2Zm8 0h1v1h-1v-1Zm2 0h1v1h-1v-1Zm2 0h1v1h-1v-1Zm2 0h1v1h-1v-1Zm2 0h1v1h-1v-1Zm2 0h1v1h-1v-1Zm9 0h2v1h-2v-1Zm3 0h2v1h-2v-1Zm-22 2h1v1h-1v-1Zm2 0h1v1h-1v-1Zm2 0h1v1h-1v-1Zm2 0h1v1h-1v-1Zm2 0h1v1h-1v-1Zm2 0h1v1h-1v-1Zm9 0h2v1h-2v-1Zm3 0h2v1h-2v-1ZM4 18h1v2H4v-2Zm2 0h1v2H6v-2Zm2 0h1v2H8v-2Zm8 1h1v1h-1v-1Zm2 0h1v1h-1v-1Zm2 0h1v1h-1v-1Zm2 0h1v1h-1v-1Zm2 0h1v1h-1v-1Zm2 0h1v1h-1v-1Zm9 0h2v1h-2v-1Zm3 0h2v1h-2v-1ZM4 21h1v2H4v-2Zm2 0h1v2H6v-2Zm2 0h1v2H8v-2Zm8 0h1v1h-1v-1Zm2 0h1v1h-1v-1Zm2 0h1v1h-1v-1Zm2 0h1v1h-1v-1Zm2 0h1v1h-1v-1Zm2 0h1v1h-1v-1Zm9 0h2v1h-2v-1Zm3 0h2v1h-2v-1Zm-22 2h1v1h-1v-1Zm2 0h1v1h-1v-1Zm2 0h1v1h-1v-1Zm2 0h1v1h-1v-1Zm2 0h1v1h-1v-1Zm2 0h1v1h-1v-1Zm9 0h2v1h-2v-1Zm3 0h2v1h-2v-1ZM4 24h1v2H4v-2Zm2 0h1v2H6v-2Zm2 0h1v2H8v-2Zm8 1h1v1h-1v-1Zm2 0h1v1h-1v-1Zm2 0h1v1h-1v-1Zm2 0h1v1h-1v-1Zm2 0h1v1h-1v-1Zm2 0h1v1h-1v-1Zm9 0h2v1h-2v-1Zm3 0h2v1h-2v-1ZM4 27h1v2H4v-2Zm2 0h1v2H6v-2Zm2 0h1v2H8v-2Zm8 0h1v1h-1v-1Zm2 0h1v1h-1v-1Zm2 0h1v1h-1v-1Zm2 0h1v1h-1v-1Zm2 0h1v1h-1v-1Zm2 0h1v1h-1v-1Zm9 0h2v1h-2v-1Zm3 0h2v1h-2v-1Zm-22 2h1v1h-1v-1Zm2 0h1v1h-1v-1Zm2 0h1v1h-1v-1Zm2 0h1v1h-1v-1Zm2 0h1v1h-1v-1Zm2 0h1v1h-1v-1Zm9 0h2v1h-2v-1Zm3 0h2v1h-2v-1ZM4 30h1v2H4v-2Zm2 0h1v2H6v-2Zm2 0h1v2H8v-2Zm8 1h1v1h-1v-1Zm2 0h1v1h-1v-1Zm2 0h1v1h-1v-1Zm2 0h1v1h-1v-1Zm2 0h1v1h-1v-1Zm2 0h1v1h-1v-1Zm9 0h2v1h-2v-1Zm3 0h2v1h-2v-1ZM4 33h1v2H4v-2Zm2 0h1v2H6v-2Zm2 0h1v2H8v-2Zm8 0h1v1h-1v-1Zm2 0h1v1h-1v-1Zm2 0h1v1h-1v-1Zm2 0h1v1h-1v-1Zm2 0h1v1h-1v-1Zm2 0h1v1h-1v-1Zm9 0h2v1h-2v-1Zm3 0h2v1h-2v-1Zm-22 2h1v1h-1v-1Zm2 0h1v1h-1v-1Zm2 0h1v1h-1v-1Zm2 0h1v1h-1v-1Zm2 0h1v1h-1v-1Zm2 0h1v1h-1v-1Zm9 0h2v1h-2v-1Zm3 0h2v1h-2v-1ZM4 36h1v2H4v-2Zm2 0h1v2H6v-2Zm2 0h1v2H8v-2Zm8 1h1v1h-1v-1Zm2 0h1v1h-1v-1Zm2 0h1v1h-1v-1Zm2 0h1v1h-1v-1Zm2 0h1v1h-1v-1Zm2 0h1v1h-1v-1Zm9 0h2v1h-2v-1Zm3 0h2v1h-2v-1ZM4 39h1v2H4v-2Zm2 0h1v2H6v-2Zm2 0h1v2H8v-2Zm8 0h1v1h-1v-1Zm2 0h1v1h-1v-1Zm2 0h1v1h-1v-1Zm2 0h1v1h-1v-1Zm2 0h1v1h-1v-1Zm2 0h1v1h-1v-1Zm9 0h2v1h-2v-1Zm3 0h2v1h-2v-1Zm-22 2h1v1h-1v-1Zm2 0h1v1h-1v-1Zm2 0h1v1h-1v-1Zm2 0h1v1h-1v-1Zm2 0h1v1h-1v-1Zm2 0h1v1h-1v-1Zm9 0h2v1h-2v-1Zm3 0h2v1h-2v-1Z" fill="url(#a)"/><defs><linearGradient id="a" x1="49.641" y1="0" x2="-.02" y2="43.998" gradientUnits="userSpaceOnUse"><stop offset=".25" stop-color="#3B768F"/><stop offset=".536" stop-color="#3EC6FF"/><stop offset=".818" stop-color="#3B768F"/></linearGradient></defs></svg>