<svg width="40" height="50" fill="none" xmlns="http://www.w3.org/2000/svg"><path d="M12 0c-.55 0-1 .45-1 1v8c0 .55.45 1 1 1h16a1 1 0 0 0 1-1V1a1 1 0 0 0-1-1H12ZM3 2C1.348 2 0 3.348 0 5v42c0 1.652 1.348 3 3 3h34c1.652 0 3-1.348 3-3V5c0-1.652-1.348-3-3-3h-6v4h5v40H4V6h5V2H3Zm3 6v36h28V8h-3v1c0 1.652-1.348 3-3 3H12c-1.652 0-3-1.348-3-3V8H6Zm4 9h8v8h-8v-8Zm2 2v4h4v-4h-4Zm9 1h9v2h-9v-2ZM10 30h8v8h-8v-8Zm2 2v4h4v-4h-4Zm1 1h2v2h-2v-2Zm8 0h9v2h-9v-2Z" fill="url(#a)"/><defs><linearGradient id="a" x1="45.128" y1="0" x2="-8.509" y2="38.017" gradientUnits="userSpaceOnUse"><stop offset=".25" stop-color="#3B768F"/><stop offset=".536" stop-color="#3EC6FF"/><stop offset=".818" stop-color="#3B768F"/></linearGradient></defs></svg>